<svg width="102" height="100" viewBox="0 0 102 100" fill="none" xmlns="http://www.w3.org/2000/svg">
<path d="M50.7681 0.00943446C50.7681 0.00943446 80.7788 -1.31478 96.6844 28.2587C88.2818 28.2587 48.2167 28.2587 48.2167 28.2587C48.2167 28.2587 39.0634 27.9633 31.2605 38.8532C29.0097 43.4141 26.6094 48.1227 29.3103 57.3915C25.4093 50.9188 8.60254 22.2266 8.60254 22.2266C8.60254 22.2266 20.4576 1.186 50.7681 0.00943446Z" fill="#E16B5A"/>
<path d="M95.1222 75.0953C95.1222 75.0953 81.2836 101.238 47.2104 99.9523C51.4137 92.8187 71.4503 58.7992 71.4503 58.7992C71.4503 58.7992 76.2874 51.1734 70.5754 39.1031C67.6717 34.9109 58.8754 30.5172 49.3379 28.175C57.008 28.1 96.5888 28.1797 96.5888 28.1797C96.5888 28.1797 109.241 48.7695 95.1222 75.0953Z" fill="#FFD464"/>
<path d="M6.62756 75.2938C6.62756 75.2938 -9.54212 50.4688 8.63177 22.1782C12.8319 29.3149 32.8573 63.3407 32.8573 63.3407C32.8573 63.3407 37.1711 71.261 50.6892 72.4454C55.8421 72.0767 61.2025 71.7634 68.0399 64.8376C64.2701 71.3868 47.3274 99.9993 47.3274 99.9993C47.3274 99.9993 22.8171 100.448 6.62756 75.2938Z" fill="#74B340"/>
<ellipse cx="50.6464" cy="50.4062" rx="23.0643" ry="22.6562" fill="white"/>
<ellipse cx="50.6381" cy="50.4062" rx="18.2924" ry="17.9688" fill="#2995CC"/>
<path d="M50.643 32.4414C50.2787 32.4414 49.9184 32.4547 49.5605 32.475C59.1585 33.0258 66.7697 40.8437 66.7697 50.4094C66.7697 59.9766 59.1585 67.7953 49.5605 68.3461C49.9192 68.3656 50.2795 68.3797 50.643 68.3797C60.7444 68.3797 68.9354 60.3336 68.9354 50.4094C68.9354 40.4867 60.7444 32.4414 50.643 32.4414Z" fill="#268CBF"/>
</svg>
